<mxfile host="app.diagrams.net" modified="2023-07-13T06:48:22.880Z" agent="Mozilla/5.0 (Windows NT 10.0; Win64; x64) AppleWebKit/537.36 (KHTML, like Gecko) Chrome/114.0.0.0 Safari/537.36" etag="WzMjV9bJWJfFzi15Z05d" version="21.6.2" type="github">
  <diagram id="C5RBs43oDa-KdzZeNtuy" name="Page-1">
    <mxGraphModel dx="1434" dy="888" grid="1" gridSize="10" guides="1" tooltips="1" connect="1" arrows="1" fold="1" page="1" pageScale="1" pageWidth="827" pageHeight="1169" math="0" shadow="0">
      <root>
        <mxCell id="WIyWlLk6GJQsqaUBKTNV-0" />
        <mxCell id="WIyWlLk6GJQsqaUBKTNV-1" parent="WIyWlLk6GJQsqaUBKTNV-0" />
        <mxCell id="Q2JHpyXK3tvcLyVBupTh-1" value="GET /account/12345" style="swimlane;swimlaneLine=1;glass=0;shadow=0;rounded=0;sketch=0;swimlaneFillColor=#FFE6CC;" parent="WIyWlLk6GJQsqaUBKTNV-1" vertex="1">
          <mxGeometry x="160" y="60" width="900" height="680" as="geometry" />
        </mxCell>
        <mxCell id="Q2JHpyXK3tvcLyVBupTh-2" value="Client" style="swimlane;html=1;horizontal=0;swimlaneLine=0;fillColor=#f5f5f5;strokeColor=#666666;fontColor=#333333;" parent="Q2JHpyXK3tvcLyVBupTh-1" vertex="1">
          <mxGeometry y="30" width="900" height="120" as="geometry">
            <mxRectangle x="260" y="330" width="30" height="50" as="alternateBounds" />
          </mxGeometry>
        </mxCell>
        <mxCell id="Q2JHpyXK3tvcLyVBupTh-7" value="Request" style="strokeWidth=2;html=1;shape=mxgraph.flowchart.start_1;whiteSpace=wrap;" parent="Q2JHpyXK3tvcLyVBupTh-2" vertex="1">
          <mxGeometry x="40" y="25" width="100" height="70" as="geometry" />
        </mxCell>
        <mxCell id="Q2JHpyXK3tvcLyVBupTh-10" value="401: Unauthorised" style="strokeWidth=2;html=1;shape=mxgraph.flowchart.terminator;whiteSpace=wrap;" parent="Q2JHpyXK3tvcLyVBupTh-2" vertex="1">
          <mxGeometry x="190" y="30" width="100" height="60" as="geometry" />
        </mxCell>
        <mxCell id="Q2JHpyXK3tvcLyVBupTh-25" value="400: Bad Request" style="strokeWidth=2;html=1;shape=mxgraph.flowchart.terminator;whiteSpace=wrap;" parent="Q2JHpyXK3tvcLyVBupTh-2" vertex="1">
          <mxGeometry x="335" y="30" width="110" height="60" as="geometry" />
        </mxCell>
        <mxCell id="Q2JHpyXK3tvcLyVBupTh-32" value="404: Not Found" style="strokeWidth=2;html=1;shape=mxgraph.flowchart.terminator;whiteSpace=wrap;" parent="Q2JHpyXK3tvcLyVBupTh-2" vertex="1">
          <mxGeometry x="490" y="35" width="100" height="60" as="geometry" />
        </mxCell>
        <mxCell id="ZfSD3USpCY6e5y5g9DAe-16" value="200: Response" style="strokeWidth=2;html=1;shape=mxgraph.flowchart.terminator;whiteSpace=wrap;" parent="Q2JHpyXK3tvcLyVBupTh-2" vertex="1">
          <mxGeometry x="640" y="35" width="100" height="60" as="geometry" />
        </mxCell>
        <mxCell id="Q2JHpyXK3tvcLyVBupTh-4" value="Authorization" style="swimlane;html=1;horizontal=0;swimlaneLine=0;fillColor=#f5f5f5;fontColor=#333333;" parent="Q2JHpyXK3tvcLyVBupTh-1" vertex="1">
          <mxGeometry y="150" width="900" height="130" as="geometry">
            <mxRectangle x="260" y="330" width="30" height="50" as="alternateBounds" />
          </mxGeometry>
        </mxCell>
        <mxCell id="Q2JHpyXK3tvcLyVBupTh-12" value="&amp;nbsp;NO&amp;nbsp;" style="edgeStyle=orthogonalEdgeStyle;rounded=0;orthogonalLoop=1;jettySize=auto;html=1;entryX=0;entryY=0.5;entryDx=0;entryDy=0;" parent="Q2JHpyXK3tvcLyVBupTh-4" source="Q2JHpyXK3tvcLyVBupTh-8" target="Q2JHpyXK3tvcLyVBupTh-11" edge="1">
          <mxGeometry relative="1" as="geometry" />
        </mxCell>
        <mxCell id="Q2JHpyXK3tvcLyVBupTh-8" value="Authorized?" style="strokeWidth=2;html=1;shape=mxgraph.flowchart.decision;whiteSpace=wrap;" parent="Q2JHpyXK3tvcLyVBupTh-4" vertex="1">
          <mxGeometry x="40" y="10" width="100" height="100" as="geometry" />
        </mxCell>
        <mxCell id="Q2JHpyXK3tvcLyVBupTh-11" value="Invalid Access Token" style="rounded=1;whiteSpace=wrap;html=1;absoluteArcSize=1;arcSize=14;strokeWidth=2;" parent="Q2JHpyXK3tvcLyVBupTh-4" vertex="1">
          <mxGeometry x="190" y="25" width="100" height="70" as="geometry" />
        </mxCell>
        <mxCell id="Q2JHpyXK3tvcLyVBupTh-5" value="API Endpoint" style="swimlane;html=1;horizontal=0;swimlaneLine=0;fillColor=#f5f5f5;fontColor=#333333;" parent="Q2JHpyXK3tvcLyVBupTh-1" vertex="1">
          <mxGeometry y="280" width="900" height="150" as="geometry">
            <mxRectangle x="260" y="330" width="30" height="50" as="alternateBounds" />
          </mxGeometry>
        </mxCell>
        <mxCell id="Q2JHpyXK3tvcLyVBupTh-14" value="Validate &lt;br&gt;request &lt;br&gt;payload!" style="strokeWidth=2;html=1;shape=mxgraph.flowchart.decision;whiteSpace=wrap;" parent="Q2JHpyXK3tvcLyVBupTh-5" vertex="1">
          <mxGeometry x="340" y="25" width="100" height="100" as="geometry" />
        </mxCell>
        <mxCell id="ZfSD3USpCY6e5y5g9DAe-8" value="Prepare&lt;br&gt;error&lt;br&gt;response" style="rounded=1;whiteSpace=wrap;html=1;absoluteArcSize=1;arcSize=14;strokeWidth=2;shadow=0;glass=0;sketch=0;gradientColor=none;" parent="Q2JHpyXK3tvcLyVBupTh-5" vertex="1">
          <mxGeometry x="505" y="37.5" width="70" height="75" as="geometry" />
        </mxCell>
        <mxCell id="ZfSD3USpCY6e5y5g9DAe-14" value="Prepare&lt;br&gt;success&lt;br&gt;response" style="rounded=1;whiteSpace=wrap;html=1;absoluteArcSize=1;arcSize=14;strokeWidth=2;shadow=0;glass=0;sketch=0;gradientColor=none;" parent="Q2JHpyXK3tvcLyVBupTh-5" vertex="1">
          <mxGeometry x="655" y="40" width="70" height="75" as="geometry" />
        </mxCell>
        <mxCell id="Q2JHpyXK3tvcLyVBupTh-9" style="edgeStyle=orthogonalEdgeStyle;rounded=0;orthogonalLoop=1;jettySize=auto;html=1;entryX=0.5;entryY=0;entryDx=0;entryDy=0;entryPerimeter=0;" parent="Q2JHpyXK3tvcLyVBupTh-1" source="Q2JHpyXK3tvcLyVBupTh-7" target="Q2JHpyXK3tvcLyVBupTh-8" edge="1">
          <mxGeometry relative="1" as="geometry" />
        </mxCell>
        <mxCell id="Q2JHpyXK3tvcLyVBupTh-13" style="edgeStyle=orthogonalEdgeStyle;rounded=0;orthogonalLoop=1;jettySize=auto;html=1;entryX=0.5;entryY=1;entryDx=0;entryDy=0;entryPerimeter=0;" parent="Q2JHpyXK3tvcLyVBupTh-1" source="Q2JHpyXK3tvcLyVBupTh-11" target="Q2JHpyXK3tvcLyVBupTh-10" edge="1">
          <mxGeometry relative="1" as="geometry" />
        </mxCell>
        <mxCell id="Q2JHpyXK3tvcLyVBupTh-6" value="Data Access Layer" style="swimlane;html=1;horizontal=0;swimlaneLine=0;startSize=23;fillColor=#f5f5f5;fontColor=#333333;" parent="Q2JHpyXK3tvcLyVBupTh-1" vertex="1">
          <mxGeometry y="430" width="900" height="130" as="geometry">
            <mxRectangle x="260" y="330" width="30" height="50" as="alternateBounds" />
          </mxGeometry>
        </mxCell>
        <mxCell id="ZfSD3USpCY6e5y5g9DAe-12" style="edgeStyle=orthogonalEdgeStyle;rounded=0;orthogonalLoop=1;jettySize=auto;html=1;entryX=0;entryY=0.5;entryDx=0;entryDy=0;entryPerimeter=0;" parent="Q2JHpyXK3tvcLyVBupTh-6" source="Q2JHpyXK3tvcLyVBupTh-17" target="ZfSD3USpCY6e5y5g9DAe-11" edge="1">
          <mxGeometry relative="1" as="geometry" />
        </mxCell>
        <mxCell id="Q2JHpyXK3tvcLyVBupTh-17" value="Query Account Details" style="rounded=1;whiteSpace=wrap;html=1;absoluteArcSize=1;arcSize=14;strokeWidth=2;shadow=0;glass=0;sketch=0;gradientColor=none;" parent="Q2JHpyXK3tvcLyVBupTh-6" vertex="1">
          <mxGeometry x="355" y="27.5" width="70" height="75" as="geometry" />
        </mxCell>
        <mxCell id="ZfSD3USpCY6e5y5g9DAe-11" value="Found&lt;br&gt;details?" style="strokeWidth=2;html=1;shape=mxgraph.flowchart.decision;whiteSpace=wrap;" parent="Q2JHpyXK3tvcLyVBupTh-6" vertex="1">
          <mxGeometry x="490" y="15" width="100" height="100" as="geometry" />
        </mxCell>
        <mxCell id="Q2JHpyXK3tvcLyVBupTh-26" value="&amp;nbsp;NO&amp;nbsp;" style="edgeStyle=orthogonalEdgeStyle;rounded=0;orthogonalLoop=1;jettySize=auto;html=1;" parent="Q2JHpyXK3tvcLyVBupTh-1" source="Q2JHpyXK3tvcLyVBupTh-14" target="Q2JHpyXK3tvcLyVBupTh-25" edge="1">
          <mxGeometry relative="1" as="geometry" />
        </mxCell>
        <mxCell id="ZfSD3USpCY6e5y5g9DAe-1" value="Database" style="swimlane;html=1;horizontal=0;swimlaneLine=0;startSize=23;fillColor=#f5f5f5;fontColor=#333333;" parent="Q2JHpyXK3tvcLyVBupTh-1" vertex="1">
          <mxGeometry y="560" width="900" height="120" as="geometry">
            <mxRectangle x="260" y="330" width="30" height="50" as="alternateBounds" />
          </mxGeometry>
        </mxCell>
        <mxCell id="ZfSD3USpCY6e5y5g9DAe-2" value="&lt;br&gt;DB" style="strokeWidth=2;html=1;shape=mxgraph.flowchart.database;whiteSpace=wrap;rounded=0;shadow=0;glass=0;sketch=0;gradientColor=none;" parent="ZfSD3USpCY6e5y5g9DAe-1" vertex="1">
          <mxGeometry x="360" y="20" width="60" height="80" as="geometry" />
        </mxCell>
        <mxCell id="ZfSD3USpCY6e5y5g9DAe-5" value="&amp;nbsp;YES&amp;nbsp;" style="edgeStyle=orthogonalEdgeStyle;rounded=0;orthogonalLoop=1;jettySize=auto;html=1;entryX=0;entryY=0.5;entryDx=0;entryDy=0;entryPerimeter=0;" parent="Q2JHpyXK3tvcLyVBupTh-1" source="Q2JHpyXK3tvcLyVBupTh-8" target="Q2JHpyXK3tvcLyVBupTh-14" edge="1">
          <mxGeometry relative="1" as="geometry">
            <Array as="points">
              <mxPoint x="90" y="355" />
            </Array>
          </mxGeometry>
        </mxCell>
        <mxCell id="ZfSD3USpCY6e5y5g9DAe-6" style="edgeStyle=orthogonalEdgeStyle;rounded=0;orthogonalLoop=1;jettySize=auto;html=1;" parent="Q2JHpyXK3tvcLyVBupTh-1" source="Q2JHpyXK3tvcLyVBupTh-17" target="ZfSD3USpCY6e5y5g9DAe-2" edge="1">
          <mxGeometry relative="1" as="geometry" />
        </mxCell>
        <mxCell id="ZfSD3USpCY6e5y5g9DAe-7" style="edgeStyle=orthogonalEdgeStyle;rounded=0;orthogonalLoop=1;jettySize=auto;html=1;entryX=0.5;entryY=0;entryDx=0;entryDy=0;" parent="Q2JHpyXK3tvcLyVBupTh-1" source="Q2JHpyXK3tvcLyVBupTh-14" target="Q2JHpyXK3tvcLyVBupTh-17" edge="1">
          <mxGeometry relative="1" as="geometry" />
        </mxCell>
        <mxCell id="ZfSD3USpCY6e5y5g9DAe-10" style="edgeStyle=orthogonalEdgeStyle;rounded=0;orthogonalLoop=1;jettySize=auto;html=1;entryX=0.5;entryY=1;entryDx=0;entryDy=0;entryPerimeter=0;" parent="Q2JHpyXK3tvcLyVBupTh-1" source="ZfSD3USpCY6e5y5g9DAe-8" target="Q2JHpyXK3tvcLyVBupTh-32" edge="1">
          <mxGeometry relative="1" as="geometry" />
        </mxCell>
        <mxCell id="ZfSD3USpCY6e5y5g9DAe-13" value="&amp;nbsp;NO&amp;nbsp;" style="edgeStyle=orthogonalEdgeStyle;rounded=0;orthogonalLoop=1;jettySize=auto;html=1;entryX=0.5;entryY=1;entryDx=0;entryDy=0;" parent="Q2JHpyXK3tvcLyVBupTh-1" source="ZfSD3USpCY6e5y5g9DAe-11" target="ZfSD3USpCY6e5y5g9DAe-8" edge="1">
          <mxGeometry relative="1" as="geometry" />
        </mxCell>
        <mxCell id="ZfSD3USpCY6e5y5g9DAe-15" value="&amp;nbsp;YES&amp;nbsp;" style="edgeStyle=orthogonalEdgeStyle;rounded=0;orthogonalLoop=1;jettySize=auto;html=1;entryX=0.5;entryY=1;entryDx=0;entryDy=0;" parent="Q2JHpyXK3tvcLyVBupTh-1" source="ZfSD3USpCY6e5y5g9DAe-11" target="ZfSD3USpCY6e5y5g9DAe-14" edge="1">
          <mxGeometry relative="1" as="geometry" />
        </mxCell>
        <mxCell id="ZfSD3USpCY6e5y5g9DAe-17" style="edgeStyle=orthogonalEdgeStyle;rounded=0;orthogonalLoop=1;jettySize=auto;html=1;entryX=0.5;entryY=1;entryDx=0;entryDy=0;entryPerimeter=0;" parent="Q2JHpyXK3tvcLyVBupTh-1" source="ZfSD3USpCY6e5y5g9DAe-14" target="ZfSD3USpCY6e5y5g9DAe-16" edge="1">
          <mxGeometry relative="1" as="geometry" />
        </mxCell>
      </root>
    </mxGraphModel>
  </diagram>
</mxfile>
